<svg version="1.2" xmlns="http://www.w3.org/2000/svg" viewBox="0 0 512 512" width="512" height="512">
	<title>1079886</title>
	<style>
		.s0 { fill: #000000 } 
	</style>
	<path id="Path 0" fill-rule="evenodd" class="s0" d="m0 11h49.3c37.2 0 52.6 0.4 63.2 1.5 7.7 0.8 18.9 2.2 25 3.1 6.1 0.8 15.7 2.4 21.5 3.5 5.8 1.1 17.5 3.8 26 6 8.5 2.2 21.6 6.1 29 8.6 7.4 2.5 18 6.3 23.5 8.5 5.5 2.2 17.9 7.8 27.5 12.4 9.6 4.7 21.6 10.8 26.5 13.7 4.9 2.8 13.5 8 19 11.5 5.5 3.6 13.8 9.2 18.5 12.5 4.7 3.4 11.6 8.6 15.5 11.6 3.9 3.1 11.5 9.4 17 14.2 5.5 4.7 15.6 14.2 22.4 21 6.8 6.8 16.3 16.9 21 22.4 4.8 5.5 11.1 13.2 14.2 17 3 3.8 8.2 10.8 11.6 15.5 3.3 4.7 8.9 13 12.5 18.5 3.5 5.5 8.7 14.1 11.5 19 2.9 4.9 9.2 17.3 14.1 27.5 4.9 10.2 11.3 24.8 14.2 32.5 2.9 7.7 6.7 18.5 8.5 24 1.8 5.5 5.1 17.4 7.4 26.5 2.2 9.1 5.1 22.8 6.5 30.5 1.3 7.7 2.9 18.9 3.5 25 0.7 6.1 1.6 14.3 2.1 18.3 0.6 3.9 1 12.8 1 32.2h-30v-7.3c0-3.9-0.4-13.1-1-20.2-0.5-7.1-1.5-17.1-2.1-22-0.5-4.9-2.1-15.3-3.5-23-1.4-7.7-3.8-19.2-5.4-25.5-1.6-6.3-4.5-16.9-6.5-23.5-2-6.6-6.3-18.8-9.5-27-3.3-8.3-9.5-22.2-13.8-31-4.4-8.8-10.2-19.8-12.9-24.5-2.7-4.7-7.1-11.9-9.8-16-2.6-4.1-7.5-11.3-10.8-16-3.4-4.7-8.6-11.7-11.6-15.5-3.1-3.8-9.9-11.9-15.2-18-5.4-6.1-14.6-15.8-20.6-21.6-5.9-5.8-14.2-13.4-18.3-17-4.1-3.5-10.6-8.9-14.5-12-3.9-3-10.8-8.2-15.5-11.6-4.7-3.3-12.3-8.5-17-11.5-4.7-2.9-12.6-7.7-17.5-10.5-4.9-2.9-16.4-8.8-25.5-13.1-9.1-4.4-23.2-10.6-31.5-13.7-8.2-3.2-21.7-7.7-30-10-8.2-2.4-20.2-5.5-26.5-6.9-6.3-1.4-17.1-3.4-24-4.5-6.9-1.1-17.7-2.4-24-3-6.3-0.6-14.5-1.3-25-2.1v420h-39.5l4.5 2.8c2.5 1.5 5.6 4.6 7 6.7 2 3.2 2.5 5.3 2.5 10.5 0 5.2-0.5 7.3-2.5 10.5-1.4 2.1-4.5 5.2-7 6.7-3.5 2.2-5.7 2.8-10 2.8-4.3 0-6.5-0.6-10-2.8-2.5-1.5-5.6-4.6-7-6.7-2-3.2-2.5-5.3-2.5-10.5 0-5.2 0.5-7.3 2.5-10.5 1.4-2.1 4.5-5.2 11.5-9.5h-39.5zm30 420h30v-390h-30z"/>
</svg>