<svg version="1.2" xmlns="http://www.w3.org/2000/svg" viewBox="0 0 512 512" width="512" height="512">
	<title>1079886</title>
	<style>
		.s0 { fill: #000000 } 
	</style>
	<path id="Path 0" fill-rule="evenodd" class="s0" d="m176.5 2.9l0.6 6.3c0.4 3.5 0.7 117.3 0.8 253.1 0.1 163.9-0.2 246.7-0.9 246.7-0.6 0-17.8-11.3-38.3-25.1-20.4-13.8-44.7-30.1-70.4-47.4l-0.6-123c-0.4-67.6-0.6-148.5-0.4-236.1l14.1-9.8c7.8-5.3 21.7-14.9 31.1-21.3 9.4-6.4 27.6-18.8 40.5-27.5zm-58.2 70.7c-4.5 3.2-11.8 8.4-16.1 11.4l-7.9 5.5c-1.1 158.9-1.5 233.1-1.6 267.5l-0.2 62.4c26.4 19.1 40 28.7 47.3 33.6l13.2 9v-198.5c-17.4-1.1-23.7-1.8-25.2-2.4-2.3-0.9-2.8-1.6-2.5-4.2 0.1-2.2 1.1-3.9 3-5.3 2.2-1.6 5.2-2.3 13.5-3l10.7-0.9c-0.4-15.6-0.6-58.7-0.9-105.7-0.2-48.1-0.7-86.5-1.2-87.8-0.9-2.2-1.2-2.2-12.4 5.1-6.3 4-15.2 10-19.7 13.3zm-54.8-35.4c9.9 0 21.8 0.3 26.4 0.7 5.5 0.4 8.6 1.1 8.8 1.9 0.2 0.7-2.7 3.2-6.4 5.5-3.8 2.4-8.2 4.9-9.8 5.5-1.6 0.7-6.5 1.9-10.7 2.7-4.3 0.8-10.2 1.5-13 1.5-2.9 0-7 0.4-12.8 1.5v398.5h9.8c5.6 0 12.2 0.7 15.7 1.6 3.3 0.9 8.5 2.9 11.5 4.4 3 1.6 7.4 4.4 9.8 6.4 2.3 2 4.2 4.5 4.2 5.6 0 1.4-0.8 2.2-2.7 2.5-1.6 0.3-11.6 0.8-22.3 1.2-12.4 0.4-23 0.2-29.2-0.5-5.4-0.7-10.9-1.7-12.3-2.4-1.4-0.7-2.8-2-3.1-2.8-0.3-0.8-1.1-6.7-1.7-13-0.9-8.4-1.2-62.9-1.2-205 0-106.4 0.3-197.4 0.8-202.2 0.6-7.5 1-9 3-10.3 1.2-0.9 5.6-1.9 9.7-2.4 4.1-0.4 15.6-0.8 25.5-0.9zm128.7-0.4l107.1 0.6c59 0.4 125.2 0.9 187.2 1.8l0.9 71.2c0.4 39.1 0.6 132.8 0.3 208.1-0.3 93.4-0.8 139.6-1.6 145-0.6 4.4-1.7 8.6-2.3 9.2-0.7 0.7-5.1 1.8-9.8 2.4-5.9 0.8-50.7 1.2-282 1.9v-22h279v-399h-279zm32.3 29.9c11.6 0.3 21.6 0.7 22.3 0.9 1 0.3 1.2 38.7 1.2 374.9l-9.7 0.7c-5.4 0.5-17.3 0.8-26.5 0.8-13.6 0-17.1-0.3-18.3-1.5-0.9-0.9-1.5-3.3-1.5-6.2 0-2.7 0.4-5.4 0.8-6 0.4-0.7 2.3-1.7 4.2-2.3 1.9-0.5 10.4-1.3 33.9-2.5l-0.4-93c-0.3-51.1-0.7-127.4-1-169.5-0.3-42.1-0.6-76.6-0.7-76.8-0.2-0.1-7.3-0.6-15.8-1.1-8.5-0.5-16.4-1.3-17.5-1.8-1.1-0.6-2.3-1.8-2.7-2.7-0.5-0.9-0.8-3.5-0.8-5.8-0.1-2.9 0.5-4.8 1.6-5.8 1-0.8 3.6-1.8 5.8-2.1 2.3-0.4 13.6-0.5 25.1-0.2zm227 0.8l0.5 375.5h-186.5l-0.7-55.7c-0.4-30.7-1.1-105.5-1.4-166.3-0.4-72.2-0.2-116.6 0.4-128 0.6-9.6 1.5-18.6 2-20 0.5-1.4 1.8-2.9 2.8-3.4 1.1-0.5 4.8-1.2 8.4-1.6 3.6-0.4 44.3-0.7 174.5-0.5zm-165 19.3l-3 0.8c-1 38.7-1 114.6-0.7 193.7l0.7 143.7c39.5 0 73.6 0.3 101.3 0.8l50.2 0.7v-342.5c-75.6 0.2-108.3 0.7-121.5 1.1-13.2 0.5-25.3 1.2-27 1.7zm62.8 26.2c0.9 0 2.8 1.1 4.2 2.5 1.4 1.4 2.5 3.3 2.5 4.3 0.1 0.9-1.8 4.6-4.2 8.2-2.3 3.6-10.1 12.4-17.3 19.6-7.1 7.2-15.9 15.2-19.5 17.8-3.6 2.6-7.1 4.7-7.7 4.6-0.7 0-2.6-1.1-4.3-2.5-2-1.7-3-3.4-3-5.2 0-1.6 1.3-4.8 2.8-7.3 1.6-2.5 6.7-8.5 11.4-13.5 4.7-4.9 12.3-12.2 16.9-16.1 4.6-3.9 10.2-8.3 12.4-9.7 2.2-1.5 4.8-2.7 5.8-2.7zm49.8 20.4c1 0.6 2.4 2.2 3 3.6 0.6 1.4 0.8 3.6 0.3 5-0.4 1.4-4.1 6.6-8.2 11.5-4.1 5-19.9 21.4-35.1 36.5-17.2 17.2-29.3 28.5-36.6 32.4l-3.2-2.2c-1.8-1.2-3.6-3.2-3.9-4.4-0.3-1.3 0.1-3.6 0.9-5.3 0.8-1.6 6.9-8.8 13.5-16 6.6-7.1 18.9-19.8 27.3-28.1 8.5-8.2 19.5-18.5 24.4-22.8 5-4.3 10.5-8.6 12.3-9.6 2.7-1.4 3.8-1.5 5.3-0.6z"/>
</svg>