<?xml version="1.0" standalone="no"?>
<!DOCTYPE svg PUBLIC "-//W3C//DTD SVG 20010904//EN"
 "http://www.w3.org/TR/2001/REC-SVG-20010904/DTD/svg10.dtd">
<svg version="1.0" xmlns="http://www.w3.org/2000/svg"
 width="905.000000pt" height="802.000000pt" viewBox="0 0 905.000000 802.000000"
 preserveAspectRatio="xMidYMid meet">

<g transform="translate(0.000000,802.000000) scale(0.100000,-0.100000)"
fill="#000000" stroke="none">
<path d="M500 7360 l0 -160 825 0 825 0 0 160 0 160 -825 0 -825 0 0 -160z
m348 7 c8 -6 12 -6 12 2 0 6 12 11 28 10 15 0 21 -3 15 -6 -7 -2 -13 -18 -13
-34 0 -19 -5 -29 -15 -29 -8 0 -15 7 -15 15 0 10 -9 15 -27 14 -24 -2 -25 -2
-5 -6 12 -2 22 -8 22 -13 0 -4 -48 -7 -107 -7 l-108 2 -3 32 -3 32 103 -1 c57
0 109 -5 116 -11z"/>
<path d="M710 7342 c0 -6 9 -12 20 -15 11 -3 20 -3 20 -1 0 2 -9 8 -20 14 -11
6 -20 7 -20 2z"/>
<path d="M2620 7360 l0 -160 895 0 895 0 0 160 0 160 -895 0 -895 0 0 -160z
m401 33 c0 -5 1 -24 2 -44 l2 -37 -100 0 c-135 0 -135 0 -135 -17 0 -8 -9 -15
-20 -15 -17 0 -20 7 -20 49 l0 49 111 0 c70 -1 114 3 122 11 12 12 37 15 38 4z"/>
<path d="M2791 7344 c0 -11 3 -14 6 -6 3 7 2 16 -1 19 -3 4 -6 -2 -5 -13z"/>
<path d="M2860 7345 c0 -8 5 -15 10 -15 6 0 10 7 10 15 0 8 -4 15 -10 15 -5 0
-10 -7 -10 -15z"/>
<path d="M2910 7342 c0 -6 9 -12 20 -15 11 -3 20 -3 20 -1 0 2 -9 8 -20 14
-11 6 -20 7 -20 2z"/>
<path d="M4780 7360 l0 -160 915 0 915 0 0 160 0 160 -915 0 -915 0 0 -160z
m701 28 c1 -7 0 -24 -1 -37 -1 -13 4 -28 12 -32 9 -6 4 -9 -14 -9 -25 0 -28 4
-30 33 l-1 32 -4 -32 c-3 -20 -10 -33 -19 -33 -9 0 -15 12 -16 33 l-1 32 -4
-32 c-4 -33 -33 -48 -33 -18 0 10 -9 15 -27 14 -24 -2 -25 -2 -5 -6 41 -8 22
-23 -28 -22 -47 2 -50 3 -51 28 l-2 26 -4 -27 c-6 -40 -33 -36 -35 5 l-1 32
-4 -33 -4 -33 -106 3 c-86 2 -108 6 -116 20 -8 12 -7 21 2 31 10 13 43 16 184
16 105 -1 177 -5 184 -11 9 -7 13 -7 13 1 0 6 17 11 39 11 22 0 43 5 46 10 9
14 25 12 26 -2z m-501 -18 c0 -5 -9 -10 -20 -10 -11 0 -20 -7 -20 -15 0 -8 9
-15 20 -15 11 0 20 -5 20 -11 0 -6 -14 -9 -32 -7 -33 3 -46 23 -34 54 6 16 66
20 66 4z"/>
<path d="M5013 7354 c-3 -8 -1 -20 6 -27 8 -8 11 -4 11 16 0 30 -7 35 -17 11z"/>
<path d="M6900 7360 l0 -160 825 0 825 0 0 160 0 160 -825 0 -825 0 0 -160z
m401 33 c0 -5 1 -24 2 -44 l2 -37 -100 0 c-135 0 -135 0 -135 -17 0 -8 -9 -15
-20 -15 -17 0 -20 7 -20 49 l0 49 111 0 c70 -1 114 3 122 11 12 12 37 15 38 4z
m259 -3 c0 -5 9 -10 20 -10 16 0 20 -7 22 -32 l1 -33 4 33 c6 45 33 43 33 -3
l0 -35 -54 0 -54 0 -4 35 c-4 33 6 55 24 55 4 0 8 -4 8 -10z m-42 -32 c2 -13
-3 -18 -17 -18 -12 0 -21 -4 -21 -9 0 -5 10 -7 22 -3 13 3 19 1 15 -5 -4 -6
-34 -11 -67 -11 -33 0 -63 5 -67 11 -4 6 2 8 15 5 12 -4 20 -2 16 3 -3 5 -12
9 -20 9 -14 0 -19 21 -8 33 3 3 34 5 67 4 50 -2 62 -5 65 -19z m202 7 c16 -19
6 -45 -20 -52 -11 -3 -20 -12 -20 -19 0 -8 -7 -14 -15 -14 -11 0 -15 12 -15
50 0 48 1 50 29 50 16 0 34 -7 41 -15z m-347 -82 c-13 -2 -35 -2 -50 0 -16 2
-5 4 22 4 28 0 40 -2 28 -4z"/>
<path d="M7071 7344 c0 -11 3 -14 6 -6 3 7 2 16 -1 19 -3 4 -6 -2 -5 -13z"/>
<path d="M7140 7345 c0 -8 5 -15 10 -15 6 0 10 7 10 15 0 8 -4 15 -10 15 -5 0
-10 -7 -10 -15z"/>
<path d="M7190 7342 c0 -6 9 -12 20 -15 11 -3 20 -3 20 -1 0 2 -9 8 -20 14
-11 6 -20 7 -20 2z"/>
<path d="M7562 7345 c0 -16 2 -22 5 -12 2 9 2 23 0 30 -3 6 -5 -1 -5 -18z"/>
<path d="M7428 7353 c7 -3 16 -2 19 1 4 3 -2 6 -13 5 -11 0 -14 -3 -6 -6z"/>
<path d="M7682 7350 c0 -14 2 -19 5 -12 2 6 2 18 0 25 -3 6 -5 1 -5 -13z"/>
<path d="M710 7091 c0 -5 -9 -11 -21 -14 -16 -4 -20 -12 -17 -34 2 -22 9 -29
31 -31 26 -3 27 -2 27 42 0 25 -4 46 -10 46 -5 0 -10 -4 -10 -9z m0 -46 c0
-14 -4 -25 -9 -25 -12 0 -23 29 -15 41 10 18 24 9 24 -16z"/>
<path d="M2830 7091 c0 -5 -9 -11 -21 -14 -16 -4 -20 -12 -17 -34 2 -22 9 -29
31 -31 26 -3 27 -2 27 42 0 25 -4 46 -10 46 -5 0 -10 -4 -10 -9z m0 -46 c0
-14 -4 -25 -9 -25 -12 0 -23 29 -15 41 10 18 24 9 24 -16z"/>
<path d="M4990 7091 c0 -5 -9 -11 -21 -14 -16 -4 -20 -12 -17 -34 2 -22 9 -29
31 -31 26 -3 27 -2 27 42 0 25 -4 46 -10 46 -5 0 -10 -4 -10 -9z m0 -46 c0
-14 -4 -25 -9 -25 -12 0 -23 29 -15 41 10 18 24 9 24 -16z"/>
<path d="M7110 7091 c0 -5 -9 -11 -21 -14 -16 -4 -20 -12 -17 -34 2 -22 9 -29
31 -31 26 -3 27 -2 27 42 0 25 -4 46 -10 46 -5 0 -10 -4 -10 -9z m0 -46 c0
-14 -4 -25 -9 -25 -12 0 -23 29 -15 41 10 18 24 9 24 -16z"/>
<path d="M643 7045 c0 -22 2 -30 4 -17 2 12 2 30 0 40 -3 9 -5 -1 -4 -23z"/>
<path d="M2763 7045 c0 -22 2 -30 4 -17 2 12 2 30 0 40 -3 9 -5 -1 -4 -23z"/>
<path d="M4923 7045 c0 -22 2 -30 4 -17 2 12 2 30 0 40 -3 9 -5 -1 -4 -23z"/>
<path d="M7043 7045 c0 -22 2 -30 4 -17 2 12 2 30 0 40 -3 9 -5 -1 -4 -23z"/>
<path d="M2795 6780 c-3 -6 1 -7 9 -4 18 7 21 14 7 14 -6 0 -13 -4 -16 -10z"/>
<path d="M3055 6780 c-3 -6 1 -7 9 -4 18 7 21 14 7 14 -6 0 -13 -4 -16 -10z"/>
<path d="M4955 6780 c-3 -6 1 -7 9 -4 18 7 21 14 7 14 -6 0 -13 -4 -16 -10z"/>
<path d="M5215 6780 c-3 -6 1 -7 9 -4 18 7 21 14 7 14 -6 0 -13 -4 -16 -10z"/>
<path d="M7075 6780 c-3 -6 1 -7 9 -4 18 7 21 14 7 14 -6 0 -13 -4 -16 -10z"/>
<path d="M7267 6783 c-17 -16 -6 -33 21 -32 23 2 24 2 5 6 -27 5 -30 20 -5 26
14 4 14 5 1 6 -9 0 -19 -2 -22 -6z"/>
<path d="M7328 6783 c7 -3 16 -2 19 1 4 3 -2 6 -13 5 -11 0 -14 -3 -6 -6z"/>
<path d="M3063 6753 c9 -2 23 -2 30 0 6 3 -1 5 -18 5 -16 0 -22 -2 -12 -5z"/>
<path d="M5223 6753 c9 -2 23 -2 30 0 6 3 -1 5 -18 5 -16 0 -22 -2 -12 -5z"/>
<path d="M2797 6729 c7 -7 15 -10 18 -7 3 3 -2 9 -12 12 -14 6 -15 5 -6 -5z"/>
<path d="M2927 6729 c7 -7 15 -10 18 -7 3 3 -2 9 -12 12 -14 6 -15 5 -6 -5z"/>
<path d="M3058 6728 c5 -5 16 -8 23 -6 8 3 3 7 -10 11 -17 4 -21 3 -13 -5z"/>
<path d="M4957 6729 c7 -7 15 -10 18 -7 3 3 -2 9 -12 12 -14 6 -15 5 -6 -5z"/>
<path d="M5087 6729 c7 -7 15 -10 18 -7 3 3 -2 9 -12 12 -14 6 -15 5 -6 -5z"/>
<path d="M5218 6728 c5 -5 16 -8 23 -6 8 3 3 7 -10 11 -17 4 -21 3 -13 -5z"/>
<path d="M7077 6729 c7 -7 15 -10 18 -7 3 3 -2 9 -12 12 -14 6 -15 5 -6 -5z"/>
<path d="M7267 6728 c2 -5 10 -8 18 -8 8 0 16 3 18 8 3 4 -5 7 -18 7 -13 0
-21 -3 -18 -7z"/>
<path d="M7367 6729 c7 -7 15 -10 18 -7 3 3 -2 9 -12 12 -14 6 -15 5 -6 -5z"/>
<path d="M2998 6723 c7 -3 16 -2 19 1 4 3 -2 6 -13 5 -11 0 -14 -3 -6 -6z"/>
<path d="M5158 6723 c7 -3 16 -2 19 1 4 3 -2 6 -13 5 -11 0 -14 -3 -6 -6z"/>
<path d="M2863 6703 c9 -2 25 -2 35 0 9 3 1 5 -18 5 -19 0 -27 -2 -17 -5z"/>
<path d="M5023 6703 c9 -2 25 -2 35 0 9 3 1 5 -18 5 -19 0 -27 -2 -17 -5z"/>
<path d="M7143 6703 c9 -2 25 -2 35 0 9 3 1 5 -18 5 -19 0 -27 -2 -17 -5z"/>
<path d="M2866 6492 c-2 -4 4 -8 14 -8 10 0 16 4 14 8 -3 4 -9 8 -14 8 -5 0
-11 -4 -14 -8z"/>
<path d="M2927 6493 c-17 -16 -6 -33 21 -32 23 2 24 2 5 6 -27 5 -30 20 -5 26
14 4 14 5 1 6 -9 0 -19 -2 -22 -6z"/>
<path d="M4955 6490 c-3 -6 1 -7 9 -4 18 7 21 14 7 14 -6 0 -13 -4 -16 -10z"/>
<path d="M5155 6490 c-3 -6 1 -7 9 -4 18 7 21 14 7 14 -6 0 -13 -4 -16 -10z"/>
<path d="M5228 6493 c7 -3 16 -2 19 1 4 3 -2 6 -13 5 -11 0 -14 -3 -6 -6z"/>
<path d="M2880 6440 c-9 -6 -10 -10 -3 -10 6 0 15 5 18 10 8 12 4 12 -15 0z"/>
<path d="M2927 6438 c2 -5 10 -8 18 -8 8 0 16 3 18 8 3 4 -5 7 -18 7 -13 0
-21 -3 -18 -7z"/>
<path d="M4957 6439 c7 -7 15 -10 18 -7 3 3 -2 9 -12 12 -14 6 -15 5 -6 -5z"/>
<path d="M5157 6439 c7 -7 15 -10 18 -7 3 3 -2 9 -12 12 -14 6 -15 5 -6 -5z"/>
<path d="M5023 6413 c9 -2 25 -2 35 0 9 3 1 5 -18 5 -19 0 -27 -2 -17 -5z"/>
<path d="M2887 6203 c-17 -16 -6 -33 21 -32 23 2 24 2 5 6 -27 5 -30 20 -5 26
14 4 14 5 1 6 -9 0 -19 -2 -22 -6z"/>
<path d="M4938 6203 c7 -3 16 -2 19 1 4 3 -2 6 -13 5 -11 0 -14 -3 -6 -6z"/>
<path d="M4986 6201 c-4 -5 3 -7 14 -4 23 6 26 13 6 13 -8 0 -17 -4 -20 -9z"/>
<path d="M5155 6200 c-3 -6 1 -7 9 -4 18 7 21 14 7 14 -6 0 -13 -4 -16 -10z"/>
<path d="M5230 6206 c0 -2 7 -7 16 -10 8 -3 12 -2 9 4 -6 10 -25 14 -25 6z"/>
<path d="M5163 6173 c9 -2 23 -2 30 0 6 3 -1 5 -18 5 -16 0 -22 -2 -12 -5z"/>
<path d="M2887 6148 c2 -5 10 -8 18 -8 8 0 16 3 18 8 3 4 -5 7 -18 7 -13 0
-21 -3 -18 -7z"/>
<path d="M4928 6148 c5 -5 16 -8 23 -6 8 3 3 7 -10 11 -17 4 -21 3 -13 -5z"/>
<path d="M4988 6148 c5 -5 16 -8 23 -6 8 3 3 7 -10 11 -17 4 -21 3 -13 -5z"/>
<path d="M5158 6148 c5 -5 16 -8 23 -6 8 3 3 7 -10 11 -17 4 -21 3 -13 -5z"/>
<path d="M3092 5920 c0 -14 2 -19 5 -12 2 6 2 18 0 25 -3 6 -5 1 -5 -13z"/>
<path d="M5252 5920 c0 -14 2 -19 5 -12 2 6 2 18 0 25 -3 6 -5 1 -5 -13z"/>
<path d="M2835 5910 c-3 -6 1 -7 9 -4 18 7 21 14 7 14 -6 0 -13 -4 -16 -10z"/>
<path d="M2908 5913 c7 -3 16 -2 19 1 4 3 -2 6 -13 5 -11 0 -14 -3 -6 -6z"/>
<path d="M2995 5910 c-3 -6 1 -7 9 -4 18 7 21 14 7 14 -6 0 -13 -4 -16 -10z"/>
<path d="M3195 5910 c-3 -6 1 -7 9 -4 18 7 21 14 7 14 -6 0 -13 -4 -16 -10z"/>
<path d="M3270 5916 c0 -2 7 -7 16 -10 8 -3 12 -2 9 4 -6 10 -25 14 -25 6z"/>
<path d="M3370 5916 c0 -2 7 -7 16 -10 8 -3 12 -2 9 4 -6 10 -25 14 -25 6z"/>
<path d="M4995 5910 c-3 -6 1 -7 9 -4 18 7 21 14 7 14 -6 0 -13 -4 -16 -10z"/>
<path d="M5068 5913 c7 -3 16 -2 19 1 4 3 -2 6 -13 5 -11 0 -14 -3 -6 -6z"/>
<path d="M5155 5910 c-3 -6 1 -7 9 -4 18 7 21 14 7 14 -6 0 -13 -4 -16 -10z"/>
<path d="M5355 5910 c-3 -6 1 -7 9 -4 18 7 21 14 7 14 -6 0 -13 -4 -16 -10z"/>
<path d="M5430 5916 c0 -2 7 -7 16 -10 8 -3 12 -2 9 4 -6 10 -25 14 -25 6z"/>
<path d="M5530 5916 c0 -2 7 -7 16 -10 8 -3 12 -2 9 4 -6 10 -25 14 -25 6z"/>
<path d="M3003 5883 c9 -2 23 -2 30 0 6 3 -1 5 -18 5 -16 0 -22 -2 -12 -5z"/>
<path d="M3268 5883 c6 -2 18 -2 25 0 6 3 1 5 -13 5 -14 0 -19 -2 -12 -5z"/>
<path d="M3368 5883 c6 -2 18 -2 25 0 6 3 1 5 -13 5 -14 0 -19 -2 -12 -5z"/>
<path d="M5163 5883 c9 -2 23 -2 30 0 6 3 -1 5 -18 5 -16 0 -22 -2 -12 -5z"/>
<path d="M5428 5883 c6 -2 18 -2 25 0 6 3 1 5 -13 5 -14 0 -19 -2 -12 -5z"/>
<path d="M5528 5883 c6 -2 18 -2 25 0 6 3 1 5 -13 5 -14 0 -19 -2 -12 -5z"/>
<path d="M2837 5859 c7 -7 15 -10 18 -7 3 3 -2 9 -12 12 -14 6 -15 5 -6 -5z"/>
<path d="M2998 5858 c5 -5 16 -8 23 -6 8 3 3 7 -10 11 -17 4 -21 3 -13 -5z"/>
<path d="M3197 5859 c7 -7 15 -10 18 -7 3 3 -2 9 -12 12 -14 6 -15 5 -6 -5z"/>
<path d="M3380 5860 c-9 -6 -10 -10 -3 -10 6 0 15 5 18 10 8 12 4 12 -15 0z"/>
<path d="M4997 5859 c7 -7 15 -10 18 -7 3 3 -2 9 -12 12 -14 6 -15 5 -6 -5z"/>
<path d="M5158 5858 c5 -5 16 -8 23 -6 8 3 3 7 -10 11 -17 4 -21 3 -13 -5z"/>
<path d="M5357 5859 c7 -7 15 -10 18 -7 3 3 -2 9 -12 12 -14 6 -15 5 -6 -5z"/>
<path d="M5540 5860 c-9 -6 -10 -10 -3 -10 6 0 15 5 18 10 8 12 4 12 -15 0z"/>
<path d="M3123 5833 c9 -2 25 -2 35 0 9 3 1 5 -18 5 -19 0 -27 -2 -17 -5z"/>
<path d="M5283 5833 c9 -2 25 -2 35 0 9 3 1 5 -18 5 -19 0 -27 -2 -17 -5z"/>
<path d="M2778 5623 c7 -3 16 -2 19 1 4 3 -2 6 -13 5 -11 0 -14 -3 -6 -6z"/>
<path d="M2826 5621 c-4 -5 3 -7 14 -4 23 6 26 13 6 13 -8 0 -17 -4 -20 -9z"/>
<path d="M2995 5620 c-3 -6 1 -7 9 -4 18 7 21 14 7 14 -6 0 -13 -4 -16 -10z"/>
<path d="M3070 5626 c0 -2 7 -7 16 -10 8 -3 12 -2 9 4 -6 10 -25 14 -25 6z"/>
<path d="M5070 5626 c0 -2 7 -7 16 -10 8 -3 12 -2 9 4 -6 10 -25 14 -25 6z"/>
<path d="M5166 5622 c-2 -4 4 -8 14 -8 10 0 16 4 14 8 -3 4 -9 8 -14 8 -5 0
-11 -4 -14 -8z"/>
<path d="M5227 5623 c-17 -16 -6 -33 21 -32 23 2 24 2 5 6 -27 5 -30 20 -5 26
14 4 14 5 1 6 -9 0 -19 -2 -22 -6z"/>
<path d="M5290 5615 c0 -8 2 -15 4 -15 2 0 6 7 10 15 3 8 1 15 -4 15 -6 0 -10
-7 -10 -15z"/>
<path d="M5450 5626 c0 -2 7 -7 16 -10 8 -3 12 -2 9 4 -6 10 -25 14 -25 6z"/>
<path d="M5506 5621 c-4 -5 3 -7 14 -4 23 6 26 13 6 13 -8 0 -17 -4 -20 -9z"/>
<path d="M5628 5623 c7 -3 16 -2 19 1 4 3 -2 6 -13 5 -11 0 -14 -3 -6 -6z"/>
<path d="M5430 5599 c0 -5 11 -9 25 -9 14 0 25 2 25 4 0 2 -11 6 -25 8 -14 3
-25 1 -25 -3z"/>
<path d="M3003 5593 c9 -2 23 -2 30 0 6 3 -1 5 -18 5 -16 0 -22 -2 -12 -5z"/>
<path d="M5505 5590 c-8 -13 3 -30 18 -29 9 0 9 2 0 6 -18 7 -16 21 5 26 15 4
15 5 0 6 -9 0 -20 -3 -23 -9z"/>
<path d="M2768 5568 c5 -5 16 -8 23 -6 8 3 3 7 -10 11 -17 4 -21 3 -13 -5z"/>
<path d="M2828 5568 c5 -5 16 -8 23 -6 8 3 3 7 -10 11 -17 4 -21 3 -13 -5z"/>
<path d="M2998 5568 c5 -5 16 -8 23 -6 8 3 3 7 -10 11 -17 4 -21 3 -13 -5z"/>
<path d="M5000 5566 c7 -7 13 -7 20 0 6 6 3 10 -10 10 -13 0 -16 -4 -10 -10z"/>
<path d="M5180 5570 c-9 -6 -10 -10 -3 -10 6 0 15 5 18 10 8 12 4 12 -15 0z"/>
<path d="M5227 5568 c2 -5 10 -8 18 -8 8 0 16 3 18 8 3 4 -5 7 -18 7 -13 0
-21 -3 -18 -7z"/>
<path d="M5460 5570 c-9 -6 -10 -10 -3 -10 6 0 15 5 18 10 8 12 4 12 -15 0z"/>
<path d="M5577 5569 c7 -7 15 -10 18 -7 3 3 -2 9 -12 12 -14 6 -15 5 -6 -5z"/>
<path d="M5333 5543 c9 -2 25 -2 35 0 9 3 1 5 -18 5 -19 0 -27 -2 -17 -5z"/>
<path d="M500 5360 l0 -160 825 0 825 0 0 160 0 160 -825 0 -825 0 0 -160z
m310 30 c0 -5 9 -10 20 -10 15 0 20 -7 21 -27 l2 -28 4 28 c4 27 6 28 61 25
56 -3 57 -4 57 -33 0 -23 -5 -31 -22 -33 -13 -2 -23 -10 -23 -18 0 -8 -7 -14
-15 -14 -8 0 -15 7 -15 15 0 12 -13 15 -60 15 -47 0 -60 3 -60 15 0 10 -9 15
-27 14 -24 -2 -25 -2 -5 -6 12 -2 22 -8 22 -13 0 -12 -129 -10 -137 3 -4 6 2
8 18 4 l24 -6 -24 18 c-13 10 -21 23 -17 29 8 14 117 13 136 -1 8 -6 12 -7 8
-3 -8 10 9 36 23 36 5 0 9 -4 9 -10z"/>
<path d="M812 5345 c0 -16 2 -22 5 -12 2 9 2 23 0 30 -3 6 -5 -1 -5 -18z"/>
<path d="M930 5345 c0 -8 5 -15 10 -15 6 0 10 7 10 15 0 8 -4 15 -10 15 -5 0
-10 -7 -10 -15z"/>
<path d="M6900 5360 l0 -160 825 0 825 0 0 160 0 160 -825 0 -825 0 0 -160z
m170 40 c0 -5 -9 -10 -20 -10 -11 0 -20 5 -20 10 0 6 9 10 20 10 11 0 20 -4
20 -10z m31 -12 c1 -7 1 -26 1 -43 l-1 -30 7 30 7 30 90 0 90 0 3 -32 3 -32
-135 0 -136 0 0 34 c0 28 4 35 19 35 11 0 23 5 26 10 9 14 25 12 26 -2z"/>
<path d="M7140 5331 c0 -5 9 -7 20 -4 11 3 20 7 20 9 0 2 -9 4 -20 4 -11 0
-20 -4 -20 -9z"/>
<path d="M710 5091 c0 -5 -9 -11 -21 -14 -16 -4 -20 -12 -17 -34 2 -22 9 -29
31 -31 26 -3 27 -2 27 42 0 25 -4 46 -10 46 -5 0 -10 -4 -10 -9z m0 -46 c0
-14 -4 -25 -9 -25 -12 0 -23 29 -15 41 10 18 24 9 24 -16z"/>
<path d="M7110 5091 c0 -5 -9 -11 -21 -14 -16 -4 -20 -12 -17 -34 2 -22 9 -29
31 -31 26 -3 27 -2 27 42 0 25 -4 46 -10 46 -5 0 -10 -4 -10 -9z m0 -46 c0
-14 -4 -25 -9 -25 -12 0 -23 29 -15 41 10 18 24 9 24 -16z"/>
<path d="M643 5045 c0 -22 2 -30 4 -17 2 12 2 30 0 40 -3 9 -5 -1 -4 -23z"/>
<path d="M4780 4920 l0 -160 840 0 840 0 0 160 0 160 -840 0 -840 0 0 -160z
m510 40 c0 -5 -7 -10 -15 -10 -8 0 -15 5 -15 10 0 6 7 10 15 10 8 0 15 -4 15
-10z m540 0 c0 -5 -7 -10 -15 -10 -8 0 -15 5 -15 10 0 6 7 10 15 10 8 0 15 -4
15 -10z m-649 -7 c0 -5 1 -24 2 -44 l2 -37 -100 0 c-135 0 -135 0 -135 -17 0
-8 -9 -15 -20 -15 -17 0 -20 7 -20 49 l0 49 111 0 c70 -1 114 3 122 11 12 12
37 15 38 4z m150 -5 c1 -7 1 -17 -1 -23 -1 -5 4 -4 11 3 7 6 23 12 36 12 13 0
23 -6 24 -12 0 -10 2 -10 6 0 3 7 25 12 59 12 l54 0 0 -35 c0 -43 -29 -50 -31
-7 l-2 27 -4 -27 c-6 -40 -33 -36 -35 5 l-1 32 -4 -31 c-4 -30 -7 -32 -46 -32
-23 -1 -48 5 -56 11 -12 9 -13 9 -7 0 5 -9 0 -13 -13 -13 -17 0 -21 7 -23 33
l-1 32 -4 -32 c-6 -46 -33 -44 -33 2 0 28 4 35 19 35 11 0 23 5 26 10 9 14 25
12 26 -2z m419 -22 c0 -7 3 -7 8 1 5 8 45 12 130 12 67 -1 122 -2 122 -3 0 -2
-5 -17 -11 -33 -9 -27 -15 -31 -50 -31 -27 -1 -39 3 -39 14 0 8 -10 14 -25 14
-14 0 -25 -4 -25 -9 0 -5 10 -7 22 -3 14 3 19 1 14 -6 -4 -6 -27 -11 -51 -10
-43 1 -45 2 -46 32 l-1 31 -14 -32 c-15 -36 -43 -44 -51 -15 -3 14 -11 18 -29
14 -13 -2 -24 -8 -24 -12 0 -5 10 -6 23 -3 17 4 19 3 11 -6 -7 -7 -22 -11 -35
-9 -18 2 -25 10 -27 31 -4 33 -22 26 -22 -9 0 -15 -6 -24 -15 -24 -10 0 -15
11 -15 35 l0 35 75 -1 c48 -1 75 -6 75 -13z m-497 -83 c-13 -2 -35 -2 -50 0
-16 2 -5 4 22 4 28 0 40 -2 28 -4z m340 0 c-13 -2 -35 -2 -50 0 -16 2 -5 4 22
4 28 0 40 -2 28 -4z"/>
<path d="M4951 4904 c0 -11 3 -14 6 -6 3 7 2 16 -1 19 -3 4 -6 -2 -5 -13z"/>
<path d="M5020 4905 c0 -8 5 -15 10 -15 6 0 10 7 10 15 0 8 -4 15 -10 15 -5 0
-10 -7 -10 -15z"/>
<path d="M5070 4902 c0 -6 9 -12 20 -15 11 -3 20 -3 20 -1 0 2 -9 8 -20 14
-11 6 -20 7 -20 2z"/>
<path d="M5378 4893 c6 -2 18 -2 25 0 6 3 1 5 -13 5 -14 0 -19 -2 -12 -5z"/>
<path d="M7043 5045 c0 -22 2 -30 4 -17 2 12 2 30 0 40 -3 9 -5 -1 -4 -23z"/>
<path d="M4990 4651 c0 -5 -9 -11 -21 -14 -16 -4 -20 -12 -17 -34 2 -22 9 -29
31 -31 26 -3 27 -2 27 42 0 25 -4 46 -10 46 -5 0 -10 -4 -10 -9z m0 -46 c0
-14 -4 -25 -9 -25 -12 0 -23 29 -15 41 10 18 24 9 24 -16z"/>
<path d="M4923 4605 c0 -22 2 -30 4 -17 2 12 2 30 0 40 -3 9 -5 -1 -4 -23z"/>
<path d="M2540 4360 l0 -160 940 0 940 0 0 160 0 160 -940 0 -940 0 0 -160z
m170 30 c0 -5 16 -10 35 -10 21 0 35 -5 36 -12 0 -10 2 -10 6 0 2 6 20 12 39
12 l35 0 -3 -47 c-3 -46 -4 -48 -35 -51 -21 -2 -33 1 -33 9 0 6 8 9 20 6 11
-3 20 -1 20 4 0 4 -35 9 -77 11 l-77 3 -7 32 c-6 33 4 53 28 53 7 0 13 -4 13
-10z"/>
<path d="M2821 4344 c0 -11 3 -14 6 -6 3 7 2 16 -1 19 -3 4 -6 -2 -5 -13z"/>
<path d="M4955 4340 c-3 -6 1 -7 9 -4 18 7 21 14 7 14 -6 0 -13 -4 -16 -10z"/>
<path d="M5108 4343 c7 -3 16 -2 19 1 4 3 -2 6 -13 5 -11 0 -14 -3 -6 -6z"/>
<path d="M5147 4343 c-17 -16 -6 -33 21 -32 23 2 24 2 5 6 -27 5 -30 20 -5 26
14 4 14 5 1 6 -9 0 -19 -2 -22 -6z"/>
<path d="M5234 4343 c8 -8 56 -11 51 -3 -3 4 -16 8 -30 8 -14 0 -24 -3 -21 -5z"/>
<path d="M4957 4289 c7 -7 15 -10 18 -7 3 3 -2 9 -12 12 -14 6 -15 5 -6 -5z"/>
<path d="M5147 4288 c2 -5 10 -8 18 -8 8 0 16 3 18 8 3 4 -5 7 -18 7 -13 0
-21 -3 -18 -7z"/>
<path d="M5023 4263 c9 -2 25 -2 35 0 9 3 1 5 -18 5 -19 0 -27 -2 -17 -5z"/>
<path d="M2750 4091 c0 -5 -9 -11 -21 -14 -16 -4 -20 -12 -17 -34 2 -22 9 -29
31 -31 26 -3 27 -2 27 42 0 25 -4 46 -10 46 -5 0 -10 -4 -10 -9z m0 -46 c0
-14 -4 -25 -9 -25 -12 0 -23 29 -15 41 10 18 24 9 24 -16z"/>
<path d="M2683 4045 c0 -22 2 -30 4 -17 2 12 2 30 0 40 -3 9 -5 -1 -4 -23z"/>
<path d="M2715 3780 c-3 -6 1 -7 9 -4 18 7 21 14 7 14 -6 0 -13 -4 -16 -10z"/>
<path d="M2915 3780 c-3 -6 1 -7 9 -4 18 7 21 14 7 14 -6 0 -13 -4 -16 -10z"/>
<path d="M2988 3783 c7 -3 16 -2 19 1 4 3 -2 6 -13 5 -11 0 -14 -3 -6 -6z"/>
<path d="M2717 3729 c7 -7 15 -10 18 -7 3 3 -2 9 -12 12 -14 6 -15 5 -6 -5z"/>
<path d="M2917 3729 c7 -7 15 -10 18 -7 3 3 -2 9 -12 12 -14 6 -15 5 -6 -5z"/>
<path d="M2783 3703 c9 -2 25 -2 35 0 9 3 1 5 -18 5 -19 0 -27 -2 -17 -5z"/>
<path d="M500 3360 l0 -160 825 0 825 0 0 160 0 160 -825 0 -825 0 0 -160z
m174 35 c-5 -12 4 -15 47 -16 143 -4 263 2 276 12 19 16 27 4 26 -39 -1 -35
-1 -35 6 -7 5 25 11 30 36 30 20 0 31 -6 33 -17 2 -13 -3 -18 -17 -18 -12 0
-21 -4 -21 -9 0 -5 10 -7 22 -3 14 3 19 2 14 -6 -4 -7 -29 -12 -57 -12 -48 0
-49 0 -51 33 l-1 32 -4 -32 c-6 -43 -33 -45 -33 -2 0 17 -4 28 -10 24 -5 -3
-10 -17 -10 -29 0 -22 -4 -23 -52 -22 -47 1 -53 4 -58 26 l-6 25 -7 -27 c-5
-18 -14 -28 -25 -28 -10 0 -23 12 -30 28 l-12 27 4 -27 c3 -27 3 -27 -54 -27
l-58 1 -4 34 c-2 19 0 41 5 49 11 20 48 20 41 0z m306 5 c0 -5 -7 -10 -15 -10
-8 0 -15 5 -15 10 0 6 7 10 15 10 8 0 15 -4 15 -10z"/>
<path d="M850 3345 c0 -15 4 -24 10 -20 6 3 10 12 10 20 0 8 -4 17 -10 20 -6
4 -10 -5 -10 -20z"/>
<path d="M2756 3491 c-4 -5 3 -7 14 -4 23 6 26 13 6 13 -8 0 -17 -4 -20 -9z"/>
<path d="M2830 3496 c0 -2 7 -7 16 -10 8 -3 12 -2 9 4 -6 10 -25 14 -25 6z"/>
<path d="M2930 3496 c0 -2 7 -7 16 -10 8 -3 12 -2 9 4 -6 10 -25 14 -25 6z"/>
<path d="M3048 3493 c7 -3 16 -2 19 1 4 3 -2 6 -13 5 -11 0 -14 -3 -6 -6z"/>
<path d="M3086 3491 c-4 -5 3 -7 14 -4 23 6 26 13 6 13 -8 0 -17 -4 -20 -9z"/>
<path d="M3156 3492 c-2 -4 4 -8 14 -8 10 0 16 4 14 8 -3 4 -9 8 -14 8 -5 0
-11 -4 -14 -8z"/>
<path d="M2910 3469 c0 -5 11 -9 25 -9 14 0 25 2 25 4 0 2 -11 6 -25 8 -14 3
-25 1 -25 -3z"/>
<path d="M2768 3463 c7 -3 16 -2 19 1 4 3 -2 6 -13 5 -11 0 -14 -3 -6 -6z"/>
<path d="M3085 3460 c-8 -13 3 -30 18 -29 9 0 9 2 0 6 -18 7 -16 21 5 26 15 4
15 5 0 6 -9 0 -20 -3 -23 -9z"/>
<path d="M2765 3440 c-16 -7 -17 -9 -3 -9 9 -1 20 4 23 9 7 11 7 11 -20 0z"/>
<path d="M2940 3440 c-9 -6 -10 -10 -3 -10 6 0 15 5 18 10 8 12 4 12 -15 0z"/>
<path d="M3160 3436 c7 -7 13 -7 20 0 6 6 3 10 -10 10 -13 0 -16 -4 -10 -10z"/>
<path d="M2983 3413 c9 -2 25 -2 35 0 9 3 1 5 -18 5 -19 0 -27 -2 -17 -5z"/>
<path d="M3158 3413 c7 -3 16 -2 19 1 4 3 -2 6 -13 5 -11 0 -14 -3 -6 -6z"/>
<path d="M710 3091 c0 -5 -9 -11 -21 -14 -16 -4 -20 -12 -17 -34 2 -22 9 -29
31 -31 26 -3 27 -2 27 42 0 25 -4 46 -10 46 -5 0 -10 -4 -10 -9z m0 -46 c0
-14 -4 -25 -9 -25 -12 0 -23 29 -15 41 10 18 24 9 24 -16z"/>
<path d="M1028 3085 c-2 -3 -2 -20 0 -40 3 -25 9 -35 21 -34 10 0 11 2 4 6
-16 6 -17 50 -1 55 8 3 6 6 -4 10 -9 4 -18 5 -20 3z"/>
<path d="M643 3045 c0 -22 2 -30 4 -17 2 12 2 30 0 40 -3 9 -5 -1 -4 -23z"/>
<path d="M810 3041 c0 -39 -1 -40 -37 -44 -35 -3 -34 -4 10 -5 26 -1 47 2 47
7 0 5 9 11 21 14 16 4 20 12 17 34 -2 22 -9 29 -30 31 -26 3 -28 1 -28 -37z
m45 4 c0 -10 -6 -20 -12 -22 -8 -3 -13 5 -13 22 0 17 5 25 13 23 6 -3 12 -13
12 -23z"/>
<path d="M891 3061 c-13 -24 9 -57 33 -48 23 9 31 34 16 52 -17 20 -37 19 -49
-4z m39 -16 c0 -16 -6 -25 -15 -25 -9 0 -15 9 -15 25 0 16 6 25 15 25 9 0 15
-9 15 -25z"/>
<path d="M967 3073 c-13 -12 -7 -33 8 -33 8 0 15 -5 15 -11 0 -6 -7 -8 -16 -5
-8 3 -12 2 -9 -4 8 -13 32 -13 41 1 4 7 -4 20 -17 31 l-24 19 24 -6 c16 -5 21
-4 17 4 -8 12 -29 15 -39 4z"/>
<path d="M2620 2760 l0 -160 970 0 970 0 0 160 0 160 -970 0 -970 0 0 -160z
m501 33 c6 -64 3 -83 -13 -83 -13 0 -18 8 -18 30 0 17 -4 30 -10 30 -5 0 -10
-13 -10 -30 0 -20 -5 -30 -15 -30 -8 0 -15 8 -15 18 -1 16 -1 16 -11 0 -10
-19 -54 -25 -63 -9 -8 12 -56 -11 -56 -26 0 -7 -7 -13 -15 -13 -11 0 -15 12
-15 50 0 49 1 50 29 50 17 0 33 -5 37 -11 4 -8 9 -8 17 0 17 17 55 13 66 -6
10 -17 10 -17 11 0 0 11 8 17 24 17 14 0 28 5 31 10 7 12 25 13 26 3z m-253
-35 c2 -13 -3 -18 -17 -18 -12 0 -21 -4 -21 -9 0 -5 10 -7 23 -4 17 4 19 3 11
-6 -21 -23 -58 -9 -65 24 l-7 30 -1 -32 c-1 -26 -5 -33 -21 -33 -16 0 -20 7
-20 35 l0 36 57 -3 c46 -2 59 -7 61 -20z"/>
<path d="M2912 2745 c0 -16 2 -22 5 -12 2 9 2 23 0 30 -3 6 -5 -1 -5 -18z"/>
<path d="M2983 2754 c-3 -8 -1 -20 6 -27 8 -8 11 -4 11 16 0 30 -7 35 -17 11z"/>
<path d="M710 2801 c0 -5 -9 -11 -21 -14 -16 -4 -20 -12 -17 -34 2 -22 9 -29
31 -31 26 -3 27 -2 27 42 0 25 -4 46 -10 46 -5 0 -10 -4 -10 -9z m0 -46 c0
-14 -4 -25 -9 -25 -12 0 -23 29 -15 41 10 18 24 9 24 -16z"/>
<path d="M643 2755 c0 -22 2 -30 4 -17 2 12 2 30 0 40 -3 9 -5 -1 -4 -23z"/>
<path d="M812 2758 c2 -28 8 -34 31 -36 25 -3 27 -1 27 32 0 20 -4 36 -10 36
-5 0 -10 -13 -10 -30 0 -16 -4 -30 -10 -30 -5 0 -10 14 -10 30 0 17 -5 30 -11
30 -6 0 -9 -14 -7 -32z"/>
<path d="M890 2770 c0 -11 7 -20 15 -20 8 0 15 -5 15 -11 0 -6 -7 -9 -15 -5
-8 3 -15 1 -15 -4 0 -14 37 -12 46 1 4 7 -4 20 -17 31 -16 14 -18 18 -6 14 9
-3 17 -1 17 4 0 6 -9 10 -20 10 -13 0 -20 -7 -20 -20z"/>
<path d="M957 2784 c-4 -4 -7 -18 -7 -31 0 -27 26 -41 43 -24 9 9 8 11 -4 6
-10 -4 -20 -2 -24 4 -3 7 3 11 15 11 15 0 20 5 18 17 -3 19 -29 29 -41 17z
m33 -14 c0 -5 -7 -10 -16 -10 -8 0 -12 5 -9 10 3 6 10 10 16 10 5 0 9 -4 9
-10z"/>
<path d="M1021 2753 c1 -27 3 -31 6 -13 2 14 12 31 21 38 14 11 13 12 -6 12
-19 0 -22 -5 -21 -37z"/>
<path d="M758 2703 c12 -2 30 -2 40 0 9 3 -1 5 -23 4 -22 0 -30 -2 -17 -4z"/>
<path d="M2830 2491 c0 -5 -9 -11 -21 -14 -16 -4 -20 -12 -17 -34 2 -22 9 -29
31 -31 26 -3 27 -2 27 42 0 25 -4 46 -10 46 -5 0 -10 -4 -10 -9z m0 -46 c0
-14 -4 -25 -9 -25 -12 0 -23 29 -15 41 10 18 24 9 24 -16z"/>
<path d="M2763 2445 c0 -22 2 -30 4 -17 2 12 2 30 0 40 -3 9 -5 -1 -4 -23z"/>
<path d="M2795 2180 c-3 -6 1 -7 9 -4 18 7 21 14 7 14 -6 0 -13 -4 -16 -10z"/>
<path d="M2995 2180 c-3 -6 1 -7 9 -4 18 7 21 14 7 14 -6 0 -13 -4 -16 -10z"/>
<path d="M3068 2183 c7 -3 16 -2 19 1 4 3 -2 6 -13 5 -11 0 -14 -3 -6 -6z"/>
<path d="M2797 2129 c7 -7 15 -10 18 -7 3 3 -2 9 -12 12 -14 6 -15 5 -6 -5z"/>
<path d="M2997 2129 c7 -7 15 -10 18 -7 3 3 -2 9 -12 12 -14 6 -15 5 -6 -5z"/>
<path d="M2863 2103 c9 -2 25 -2 35 0 9 3 1 5 -18 5 -19 0 -27 -2 -17 -5z"/>
<path d="M2887 1893 c-17 -16 -6 -33 21 -32 23 2 24 2 5 6 -27 5 -30 20 -5 26
14 4 14 5 1 6 -9 0 -19 -2 -22 -6z"/>
<path d="M2887 1838 c2 -5 10 -8 18 -8 8 0 16 3 18 8 3 4 -5 7 -18 7 -13 0
-21 -3 -18 -7z"/>
<path d="M2784 1603 c8 -8 56 -11 51 -3 -3 4 -16 8 -30 8 -14 0 -24 -3 -21 -5z"/>
<path d="M2866 1601 c-4 -5 3 -7 14 -4 23 6 26 13 6 13 -8 0 -17 -4 -20 -9z"/>
<path d="M2928 1603 c7 -3 16 -2 19 1 4 3 -2 6 -13 5 -11 0 -14 -3 -6 -6z"/>
<path d="M3056 1601 c-4 -5 3 -7 14 -4 23 6 26 13 6 13 -8 0 -17 -4 -20 -9z"/>
<path d="M3190 1606 c0 -2 7 -7 16 -10 8 -3 12 -2 9 4 -6 10 -25 14 -25 6z"/>
<path d="M3068 1573 c7 -3 16 -2 19 1 4 3 -2 6 -13 5 -11 0 -14 -3 -6 -6z"/>
<path d="M2868 1548 c5 -5 16 -8 23 -6 8 3 3 7 -10 11 -17 4 -21 3 -13 -5z"/>
<path d="M3065 1550 c-16 -7 -17 -9 -3 -9 9 -1 20 4 23 9 7 11 7 11 -20 0z"/>
<path d="M3200 1550 c-9 -6 -10 -10 -3 -10 6 0 15 5 18 10 8 12 4 12 -15 0z"/>
<path d="M2802 1320 c0 -14 2 -19 5 -12 2 6 2 18 0 25 -3 6 -5 1 -5 -13z"/>
<path d="M2765 1310 c-3 -6 1 -7 9 -4 18 7 21 14 7 14 -6 0 -13 -4 -16 -10z"/>
<path d="M2836 1311 c-4 -5 3 -7 14 -4 23 6 26 13 6 13 -8 0 -17 -4 -20 -9z"/>
<path d="M2935 1310 c-3 -6 1 -7 9 -4 18 7 21 14 7 14 -6 0 -13 -4 -16 -10z"/>
<path d="M2848 1283 c7 -3 16 -2 19 1 4 3 -2 6 -13 5 -11 0 -14 -3 -6 -6z"/>
<path d="M2943 1283 c9 -2 23 -2 30 0 6 3 -1 5 -18 5 -16 0 -22 -2 -12 -5z"/>
<path d="M2845 1260 c-16 -7 -17 -9 -3 -9 9 -1 20 4 23 9 7 11 7 11 -20 0z"/>
<path d="M2938 1258 c5 -5 16 -8 23 -6 8 3 3 7 -10 11 -17 4 -21 3 -13 -5z"/>
<path d="M7250 510 c-18 -18 -20 -33 -20 -130 0 -149 1 -150 153 -150 147 0
157 6 157 96 l0 64 -71 0 c-44 0 -68 4 -64 10 4 6 -6 5 -20 -2 l-27 -12 26
-23 c19 -16 40 -23 67 -23 38 0 39 -1 39 -35 0 -33 -2 -35 -35 -35 -27 0 -35
4 -35 18 0 30 -59 66 -101 63 -42 -3 -54 9 -45 45 6 23 11 25 54 22 l47 -3 3
58 3 57 -56 0 c-42 0 -60 -5 -75 -20z"/>
<path d="M7782 392 c-1 -42 2 -71 7 -68 5 3 7 15 4 26 -3 11 0 27 7 35 8 9 9
15 2 15 -6 0 -13 15 -15 33 -2 17 -5 -1 -5 -41z"/>
<path d="M7980 430 c0 -16 -5 -30 -10 -30 -7 0 -7 -6 -1 -18 6 -10 7 -28 4
-40 -3 -13 -1 -22 6 -22 7 0 11 25 11 70 0 39 -2 70 -5 70 -3 0 -5 -13 -5 -30z"/>
<path d="M7728 393 c-3 -54 -5 -58 -28 -58 -19 0 -26 6 -28 24 -2 13 2 28 10
33 10 8 10 9 -2 5 -10 -2 -15 -16 -15 -38 0 -32 2 -34 38 -35 l37 -1 0 63 c0
80 -8 84 -12 7z"/>
<path d="M7851 381 c16 -24 6 -48 -23 -54 -21 -4 -21 -4 -2 -6 12 0 27 6 34
14 13 16 6 65 -10 65 -6 0 -5 -8 1 -19z"/>
<path d="M7907 393 c-12 -12 -7 -50 8 -63 8 -6 22 -10 32 -7 14 4 13 5 -5 6
-28 1 -39 27 -23 52 11 18 2 27 -12 12z"/>
<path d="M8023 365 c0 -22 2 -30 4 -17 2 12 2 30 0 40 -3 9 -5 -1 -4 -23z"/>
<path d="M8125 364 c2 -46 15 -57 15 -11 0 20 -3 38 -8 41 -4 2 -7 -11 -7 -30z"/>
<path d="M8177 393 c-12 -12 -7 -50 8 -63 8 -6 22 -10 32 -7 14 4 13 5 -5 6
-28 1 -39 27 -23 52 11 18 2 27 -12 12z"/>
<path d="M8237 388 c5 -7 10 -30 10 -51 1 -42 -18 -59 -58 -51 l-24 5 24 -11
c18 -8 29 -7 47 5 20 13 24 24 24 65 0 39 -3 50 -16 50 -12 0 -14 -4 -7 -12z"/>
<path d="M8291 358 l1 -43 8 34 c4 18 14 37 22 42 9 6 7 9 -9 9 -20 0 -23 -5
-22 -42z"/>
<path d="M8422 380 c0 -14 2 -19 5 -12 2 6 2 18 0 25 -3 6 -5 1 -5 -13z"/>
<path d="M8470 361 c0 -23 2 -41 4 -41 8 0 12 71 4 76 -4 3 -8 -13 -8 -35z"/>
<path d="M8529 357 c5 -37 6 -39 9 -12 2 17 8 35 12 40 6 7 2 11 -8 12 -15 1
-17 -5 -13 -40z"/>
<path d="M8590 357 c4 -41 5 -41 8 -8 2 18 0 37 -5 42 -5 5 -6 -11 -3 -34z"/>
<path d="M8070 340 c0 -11 4 -20 9 -20 5 0 7 9 4 20 -3 11 -7 20 -9 20 -2 0
-4 -9 -4 -20z"/>
<path d="M8365 350 c-8 -13 3 -30 18 -30 8 0 7 3 -2 9 -7 5 -10 14 -7 20 4 6
5 11 2 11 -3 0 -8 -4 -11 -10z"/>
</g>
</svg>
